<?xml version="1.0" encoding="utf-8"?>
<!-- Generator: Adobe Illustrator 19.0.0, SVG Export Plug-In . SVG Version: 6.00 Build 0)  -->
<svg version="1.1" id="Layer_1" xmlns="http://www.w3.org/2000/svg" xmlns:xlink="http://www.w3.org/1999/xlink" x="0px" y="0px"
	viewBox="0 0 32 32" style="enable-background:new 0 0 32 32;" xml:space="preserve">
<style type="text/css">
	.st0{fill:#010101;}
</style>
	<g id="XMLID_16_">
	<path id="XMLID_20_" class="st0" d="M31.2,14.4l-4.8,0c0,0,0,0,0,0c-0.1,0-0.2,0-0.3,0.1C26,14.6,26,14.7,26,14.8l0,1.2l-0.5,0
		l-6.3-2.7l4.9-4.9c0,0,0,0,0.1-0.1L24.4,8l0,0l0.2-0.2l0.9-0.9c0.8-0.8,0.8-2,0-2.7L25,3.7c-0.8-0.8-2-0.8-2.7,0l-0.9,0.9l-0.2,0.2
		L20.9,5c0,0,0,0-0.1,0.1L14,11.9c-0.2,0-0.5,0-0.7,0.1l-5.6,1.2c-1.1,0.2-2.1,0.9-2.7,1.9l-2.9,4.8c-0.5,0.9-0.3,2.1,0.6,2.6
		c0.2,0.1,0.3,0.2,0.5,0.2l-1.7,1.7c-0.1,0.1-0.1,0.2-0.1,0.3l-1.1,3.7c0,0.2,0,0.3,0.1,0.4c0.1,0.1,0.2,0.1,0.3,0.1
		c0,0,0.1,0,0.1,0L3,28.2c0,0,0,0,0,0l1.6-0.5c0.1,0,0.2-0.1,0.3-0.1l1.2-1.2c0.3,0.4,0.8,0.7,1.3,0.7c0.1,0,0.2,0,0.2,0l5.5-0.9v0
		l0.3,0c0.5-0.1,1,0,1.5,0.1l1.9,0.6c0.8,0.3,1.7,0.2,2.6-0.1l4.6-1.6l2,0l0,0.6c0,0.2,0.2,0.4,0.4,0.4l4.8,0c0,0,0,0,0,0
		c0.1,0,0.2,0,0.3-0.1c0.1-0.1,0.1-0.2,0.1-0.3l0-11C31.7,14.6,31.5,14.4,31.2,14.4z M30.8,25.4l-3.9,0l0-0.2l0-0.4l0-0.4l0-7.4
		l0-0.4l0-0.4l0-0.8l4,0L30.8,25.4z M23.9,24.3c0,0-0.1,0-0.1,0l-4.6,1.6c-0.7,0.2-1.4,0.2-2,0l-1.9-0.6c-0.6-0.2-1.2-0.2-1.8-0.1
		l-0.3,0l-0.4,0.1l-5.1,0.8c-0.3,0.1-0.7-0.2-0.8-0.5c0,0,0,0,0-0.1c0-0.2,0-0.4,0-0.5c0-0.3,0.1-0.6,0.3-0.8
		c0.3-0.4,0.7-0.7,1.2-0.7l0.1,0L9,23.5l3.3-0.5v0l1.3-0.2c0.5-0.1,0.9-0.3,1.2-0.7l0.7-0.9c0.5-0.6,0.6-1.3,0.6-2
		c-0.1-0.7-0.4-1.3-1-1.7l3.3-3.3l6.7,2.9c0.1,0,0.1,0,0.2,0l0.6,0l0,7.4L23.9,24.3z M4,21.8c-0.3,0.1-0.6,0-0.8-0.1
		c-0.5-0.3-0.6-0.9-0.3-1.4l2.9-4.8C6.2,14.7,7,14.2,7.9,14L13,13l-3.4,3.4l-1.1,0.1c-0.6,0.1-1.1,0.4-1.4,0.9l-2.3,3.8l-0.6,0.6
		C4.1,21.8,4,21.8,4,21.8z M8.6,17.4l-1.1,1.1l0.4-0.7C8,17.6,8.2,17.4,8.6,17.4z M4.7,22.5l0.8-0.8l4.6-4.6l0.5-0.5l0.5-0.5
		l3.4-3.4l0.4-0.4l0.4-0.4l5-5l0.7,0.7l-4.6,4.6l-0.4,0.4L15.5,13l-3,3l-0.5,0.5L11.6,17l-8.4,8.4l-0.7-0.7L4.7,22.5z M23.6,4
		c0.3,0,0.5,0.1,0.7,0.3l0.5,0.5c0.4,0.4,0.4,1.1,0,1.5l-0.6,0.6l-2-2l0.6-0.6C23.1,4.1,23.3,4,23.6,4z M21.5,5.7l0.2-0.2l2,2
		l-0.2,0.2l0,0L23.2,8l-0.3,0.3l-0.7-0.7l-0.6-0.6l-0.7-0.7L21.2,6L21.5,5.7L21.5,5.7z M2,27.6l-0.6,0.2l0,0l0.2-0.6L2,27.6L2,27.6z
		 M3,27.3l-1.1-1.1l0.2-0.7l1.6,1.6L3,27.3z M4.5,26.7L3.8,26l9.1-9.1l0.4-0.4l0.3-0.3l2.9-2.9l0.4-0.4l0.4-0.4l4.3-4.3L22.2,9
		l-3.9,3.9l-0.4,0.4l-0.4,0.4l-3.1,3.1l-0.3,0.3l-0.3,0.3l-5.2,5.2l-0.5,0.1c-0.7,0.1-1.3,0.5-1.8,1.1c-0.3,0.5-0.5,1-0.5,1.6
		L4.5,26.7z M14.6,17.9c0.4,0.3,0.6,0.7,0.7,1.2c0.1,0.5-0.1,1-0.4,1.3l-0.7,0.9c-0.2,0.2-0.4,0.3-0.7,0.4L12.6,22l0,0l-2.5,0.4
		L14.6,17.9L14.6,17.9z"/>
		<path id="XMLID_17_" class="st0" d="M28,24.8c0.2,0.1,0.4,0.2,0.6,0.2c0.2,0,0.4,0,0.5-0.1c0.4-0.2,0.7-0.6,0.7-1.1
		c0-0.5-0.3-0.9-0.7-1.1c-0.1-0.1-0.3-0.1-0.4-0.1c0,0-0.1,0-0.1,0c-0.1,0-0.2,0-0.4,0.1c-0.5,0.2-0.9,0.6-0.9,1.2
		c0,0.2,0.1,0.4,0.2,0.6C27.7,24.5,27.8,24.6,28,24.8z M28.6,23.4C28.7,23.4,28.7,23.4,28.6,23.4c0.2,0,0.3,0.2,0.3,0.3
		c0,0.2-0.1,0.3-0.3,0.3c0,0-0.1,0-0.1,0c-0.2,0-0.3-0.2-0.3-0.3C28.3,23.5,28.5,23.4,28.6,23.4z"/>
</g>
</svg>
